<?xml version="1.0" standalone="no"?>
<!DOCTYPE svg PUBLIC "-//W3C//DTD SVG 20010904//EN"
 "http://www.w3.org/TR/2001/REC-SVG-20010904/DTD/svg10.dtd">
<svg version="1.0" xmlns="http://www.w3.org/2000/svg"
 width="555.000000pt" height="555.000000pt" viewBox="0 0 555.000000 555.000000"
 preserveAspectRatio="xMidYMid meet">
<metadata>
Created by potrace 1.11, written by Peter Selinger 2001-2013
</metadata>
<g transform="translate(0.000000,555.000000) scale(0.100000,-0.100000)"
fill="#000000" stroke="none">
<path d="M1792 3830 l3 -621 470 -2 470 -2 3 -61 3 -61 -110 -7 c-162 -9 -301
-40 -398 -87 -99 -47 -133 -88 -133 -159 0 -39 5 -51 33 -77 62 -59 146 -86
324 -103 122 -12 365 1 475 26 174 39 234 113 154 189 -34 31 -84 51 -201 77
-55 12 -60 16 -63 41 -3 28 -3 28 40 23 24 -3 70 -8 103 -11 182 -19 379 -104
410 -177 27 -65 -12 -111 -148 -178 -93 -46 -200 -75 -329 -91 -87 -10 -91
-10 -110 11 -32 34 -87 52 -153 52 -70 0 -110 -13 -147 -50 -57 -53 -21 -136
68 -161 88 -24 173 -9 236 44 20 17 42 25 66 25 43 0 175 23 247 43 143 40
274 115 325 187 62 87 21 188 -110 267 -87 52 -329 113 -452 113 l-48 0 0 65
0 65 393 -1 c215 0 429 0 475 1 l82 0 0 620 0 620 -990 0 -990 0 2 -620z m959
-863 c9 -57 34 -75 141 -101 97 -24 158 -50 158 -65 0 -14 -65 -41 -143 -59
-56 -13 -123 -17 -307 -17 -219 0 -240 2 -310 23 -78 25 -120 53 -120 83 0 27
46 75 94 97 95 45 284 81 411 78 l70 -1 6 -38z m-41 -440 c37 -18 31 -40 -15
-56 -91 -31 -216 25 -131 59 32 13 118 11 146 -3z"/>
<path d="M793 2273 c-9 -3 -13 -26 -13 -65 0 -51 3 -61 20 -65 19 -5 20 -14
20 -168 0 -156 -1 -163 -21 -168 -18 -5 -20 -12 -17 -64 l3 -58 125 0 125 0 3
58 c3 52 1 59 -17 64 -19 5 -21 13 -21 106 0 55 3 98 6 95 3 -3 30 -77 60
-164 l54 -159 60 -3 c43 -2 62 1 65 10 2 7 25 79 51 160 26 81 51 145 56 142
4 -3 8 -43 8 -89 0 -74 -2 -86 -20 -95 -17 -9 -20 -21 -20 -70 l0 -60 145 0
145 0 0 64 c0 55 -3 64 -20 69 -18 5 -20 14 -19 165 0 150 1 160 19 165 17 4
20 14 20 65 0 45 -4 61 -16 66 -22 9 -297 7 -310 -2 -6 -4 -26 -51 -44 -105
-18 -54 -36 -95 -40 -90 -4 4 -20 46 -35 93 -15 47 -32 91 -38 98 -7 9 -52 12
-166 11 -86 0 -162 -3 -168 -6z"/>
<path d="M2650 2206 c0 -73 2 -74 103 -68 l57 4 0 64 0 64 -80 0 -80 0 0 -64z"/>
<path d="M4210 2205 l0 -65 80 0 80 0 0 65 0 65 -80 0 -80 0 0 -65z"/>
<path d="M2920 2173 c0 -34 -8 -46 -37 -62 -20 -10 -23 -20 -23 -71 0 -44 4
-60 14 -60 10 0 14 -24 18 -98 8 -164 44 -207 173 -206 39 1 82 6 98 12 25 11
27 15 27 72 l0 60 -45 0 c-40 0 -47 3 -56 27 -5 15 -9 50 -7 77 l3 51 50 5
c50 5 50 5 53 44 6 72 -2 85 -56 88 l-47 3 -3 43 -3 42 -80 0 -79 0 0 -27z"/>
<path d="M1767 2104 c-96 -34 -137 -97 -137 -212 0 -85 15 -125 61 -168 42
-39 86 -54 158 -54 109 0 177 37 212 115 19 41 25 125 13 184 -9 42 -77 117
-120 131 -51 17 -144 19 -187 4z m123 -143 c16 -31 13 -127 -6 -145 -18 -19
-28 -20 -55 -6 -16 9 -19 22 -19 78 0 40 5 73 12 80 18 18 56 14 68 -7z"/>
<path d="M2368 2100 c-20 -11 -40 -25 -44 -32 -6 -9 -10 -5 -14 12 -6 24 -9
25 -105 28 -111 3 -115 1 -115 -65 0 -51 8 -73 26 -73 11 0 14 -18 14 -80 0
-64 -3 -80 -15 -80 -18 0 -27 -34 -23 -86 l3 -39 123 -3 122 -3 0 66 c0 52 -3
65 -15 65 -13 0 -15 13 -13 78 3 76 3 77 30 80 34 4 48 -25 48 -96 0 -36 -5
-52 -21 -65 -16 -14 -19 -27 -17 -70 l3 -52 123 -3 122 -3 0 61 c0 45 -4 62
-15 66 -11 5 -15 24 -15 80 0 155 -34 219 -120 229 -33 4 -55 0 -82 -15z"/>
<path d="M3370 2111 c-59 -14 -85 -28 -118 -65 -72 -82 -70 -228 5 -315 26
-31 45 -42 87 -52 68 -15 160 -8 210 16 105 51 138 240 59 343 -44 58 -158 91
-243 73z m95 -164 c11 -44 1 -119 -17 -131 -33 -20 -53 4 -56 69 -4 74 1 85
37 85 24 0 32 -5 36 -23z"/>
<path d="M3957 2110 c-16 -5 -35 -14 -42 -20 -11 -9 -18 -8 -30 4 -13 12 -37
16 -100 16 -114 0 -115 0 -115 -71 0 -48 3 -60 20 -69 17 -9 20 -21 20 -80 0
-59 -3 -71 -20 -80 -17 -9 -20 -21 -20 -70 l0 -60 140 0 140 0 0 65 0 65 -30
0 c-29 0 -30 2 -30 46 0 45 13 82 34 96 6 4 37 8 69 8 l57 0 0 70 c0 66 -1 71
-26 80 -29 11 -29 11 -67 0z"/>
<path d="M4539 2110 c-84 -14 -129 -62 -129 -135 0 -77 43 -126 125 -140 52
-10 75 -22 75 -40 0 -24 -57 -19 -70 5 -10 18 -19 21 -68 18 l-57 -3 0 -60 0
-59 45 -14 c57 -17 204 -12 244 8 48 25 71 64 71 125 0 73 -24 104 -101 129
-95 30 -106 36 -101 49 6 20 35 19 54 -2 13 -16 29 -21 69 -21 60 0 64 6 57
73 -5 44 -8 47 -42 56 -60 15 -124 19 -172 11z"/>
<path d="M2617 2103 c-4 -3 -7 -33 -7 -65 0 -43 4 -60 15 -64 22 -9 22 -159
-1 -168 -12 -4 -14 -19 -12 -63 l3 -58 123 -3 122 -3 0 60 c0 50 -3 62 -20 71
-18 10 -20 20 -18 144 0 73 -2 138 -6 144 -8 13 -187 17 -199 5z"/>
<path d="M4167 2103 c-3 -5 -7 -33 -8 -63 -4 -49 -2 -56 19 -65 21 -9 22 -14
22 -161 0 -170 -3 -178 -67 -172 l-38 3 -3 -66 -3 -66 32 -7 c119 -23 208 7
242 82 19 42 22 69 25 270 3 166 1 226 -8 237 -9 11 -36 15 -111 15 -54 0
-100 -3 -102 -7z"/>
<path d="M4017 1804 c-4 -4 -7 -34 -7 -66 l0 -59 63 3 62 3 0 60 0 60 -55 3
c-31 2 -59 0 -63 -4z"/>
<path d="M3541 1433 c-67 -81 -54 -228 25 -280 40 -26 49 1 16 45 -23 31 -27
45 -27 107 0 63 3 76 28 108 48 63 9 81 -42 20z"/>
<path d="M5400 1455 c0 -8 11 -31 25 -51 44 -64 36 -162 -17 -220 -16 -18 -17
-23 -4 -33 32 -27 106 80 106 153 0 42 -22 97 -52 131 -31 36 -58 46 -58 20z"/>
<path d="M115 1443 c-30 -7 -65 -44 -65 -68 0 -37 28 -63 94 -85 35 -11 67
-28 70 -37 8 -20 -11 -43 -36 -43 -24 0 -78 28 -78 40 0 6 -9 10 -20 10 -17 0
-20 -7 -20 -40 0 -43 19 -61 43 -42 8 7 18 7 27 2 26 -17 86 -11 114 11 19 15
26 30 26 54 0 40 -29 66 -100 90 -61 20 -77 37 -55 59 9 9 23 16 31 16 21 0
57 -20 67 -36 4 -8 17 -14 27 -14 15 0 20 7 20 28 0 39 -23 70 -41 55 -8 -6
-22 -7 -34 -2 -22 8 -40 9 -70 2z"/>
<path d="M300 1435 c-18 -21 -5 -47 22 -43 26 3 37 36 16 49 -18 12 -24 11
-38 -6z"/>
<path d="M993 1444 c-17 -8 -16 -29 2 -44 23 -19 21 -178 -2 -195 -25 -19 -6
-35 42 -35 48 0 67 16 42 35 -13 9 -17 34 -19 126 -3 114 -3 114 -28 116 -14
1 -31 -1 -37 -3z"/>
<path d="M1397 1443 c-12 -12 -7 -41 8 -47 12 -4 15 -24 15 -91 0 -67 -3 -87
-15 -91 -8 -4 -15 -15 -15 -25 0 -16 8 -19 50 -19 42 0 50 3 50 19 0 10 -7 21
-15 25 -11 4 -15 21 -15 67 0 34 3 60 6 56 4 -3 21 -39 38 -79 23 -54 36 -73
50 -73 21 0 25 6 64 90 l27 60 3 -55 c2 -40 -1 -57 -12 -66 -9 -6 -16 -19 -16
-28 0 -23 98 -23 107 0 4 10 0 20 -10 26 -24 13 -24 163 -1 189 23 25 11 49
-25 49 -40 0 -52 -15 -91 -109 -19 -45 -37 -81 -41 -81 -4 0 -21 36 -39 81
-18 44 -39 87 -47 95 -15 14 -64 19 -76 7z"/>
<path d="M2222 1438 c-18 -18 -14 -36 9 -43 13 -4 27 -1 36 8 13 12 12 16 -2
31 -20 19 -27 20 -43 4z"/>
<path d="M2864 1436 c-18 -14 -18 -16 -3 -31 11 -11 24 -15 38 -10 23 7 27 25
9 43 -15 15 -20 15 -44 -2z"/>
<path d="M3634 1436 c-18 -14 -18 -16 -3 -31 11 -11 24 -15 38 -10 23 7 27 25
9 43 -15 15 -20 15 -44 -2z"/>
<path d="M4067 1443 c-12 -12 -7 -41 8 -47 23 -8 22 -171 -2 -184 -31 -18 -8
-42 41 -42 49 0 68 16 42 35 -14 11 -16 26 -14 86 l3 74 69 -97 c45 -64 76
-98 88 -98 16 0 18 10 18 114 0 92 3 115 15 120 20 7 19 32 -1 40 -9 3 -31 6
-50 6 -40 0 -57 -26 -30 -45 13 -10 16 -25 14 -71 l-3 -59 -41 60 c-62 90 -89
115 -122 115 -16 0 -32 -3 -35 -7z"/>
<path d="M4707 1443 c-12 -11 -8 -34 8 -50 22 -22 9 -33 -24 -20 -23 8 -34 7
-62 -9 -19 -11 -38 -30 -44 -42 -13 -28 -19 -28 -33 3 -16 35 -65 57 -107 49
-66 -12 -106 -95 -75 -155 14 -25 62 -49 98 -49 33 0 80 33 91 64 8 19 9 19
25 -11 22 -45 39 -51 134 -51 74 0 82 2 82 19 0 10 -4 19 -10 19 -6 0 -10 43
-10 108 0 71 -4 112 -12 120 -13 13 -50 16 -61 5z m-207 -123 c24 -24 26 -57
4 -88 -18 -26 -56 -29 -78 -6 -24 24 -20 80 6 98 30 21 44 20 68 -4z m208 4
c26 -18 30 -74 6 -98 -35 -35 -94 -4 -94 49 0 28 27 65 48 65 10 0 28 -7 40
-16z"/>
<path d="M5154 1436 c-18 -14 -18 -16 -3 -31 11 -11 24 -15 38 -10 23 7 27 25
9 43 -15 15 -20 15 -44 -2z"/>
<path d="M2351 1418 c-5 -13 -7 -26 -5 -29 2 -4 -5 -9 -16 -12 -22 -6 -28 -37
-6 -37 9 0 15 -20 18 -70 6 -76 18 -100 53 -100 52 0 79 35 33 42 -21 3 -23 9
-26 65 -3 58 -1 62 20 65 30 4 30 32 1 36 -18 3 -23 10 -23 33 0 22 -5 29 -20
29 -12 0 -24 -9 -29 -22z"/>
<path d="M3356 1383 c-3 -4 -29 -7 -56 -8 -62 -1 -100 -32 -100 -81 0 -18 4
-35 10 -39 17 -11 -10 -53 -31 -48 -16 5 -19 15 -19 65 0 49 -4 63 -25 83 -27
28 -33 29 -71 15 -18 -7 -30 -7 -40 1 -21 18 -59 7 -62 -18 -2 -13 1 -23 7
-23 7 0 11 -24 11 -60 0 -33 -4 -60 -10 -60 -5 0 -10 -9 -10 -20 0 -17 7 -20
50 -20 42 0 50 3 50 19 0 10 -7 21 -15 25 -18 7 -21 86 -3 104 17 17 55 15 62
-4 3 -9 6 -45 6 -81 l0 -66 51 5 51 5 -6 -39 c-6 -35 -4 -39 21 -49 35 -13
127 -7 147 10 24 20 20 67 -6 85 -13 9 -43 16 -70 16 -27 0 -48 5 -48 10 0 6
18 10 40 10 55 0 94 37 87 83 -3 21 1 36 11 43 9 6 13 18 9 28 -7 16 -28 21
-41 9z m-32 -65 c21 -29 4 -58 -32 -58 -48 0 -67 34 -36 64 22 22 50 20 68 -6z
m16 -179 c0 -18 -5 -20 -47 -17 -36 2 -49 7 -51 21 -3 14 4 17 47 17 45 0 51
-3 51 -21z"/>
<path d="M284 1365 c-4 -9 1 -24 10 -34 21 -23 21 -99 0 -122 -9 -10 -13 -22
-10 -28 8 -13 204 -13 212 0 3 6 -1 18 -10 28 -22 24 -22 107 0 115 47 18 53
10 56 -71 l3 -78 34 -3 c45 -5 64 15 34 35 -18 12 -23 25 -23 57 0 47 13 66
47 66 21 0 22 -5 25 -77 l3 -78 43 -3 c36 -3 42 0 42 16 0 11 -9 22 -20 25
-17 4 -20 14 -20 66 0 48 -4 65 -20 81 -23 23 -34 24 -75 6 -25 -11 -35 -11
-57 0 -20 10 -34 11 -54 4 -19 -8 -30 -8 -38 0 -5 5 -23 10 -38 10 -34 0 -49
-27 -25 -45 23 -16 24 -120 2 -129 -35 -13 -44 4 -47 87 l-3 82 -33 3 c-22 2
-34 -2 -38 -13z"/>
<path d="M753 1365 c-3 -9 2 -24 11 -34 22 -24 23 -173 1 -191 -30 -25 -17
-40 35 -40 43 0 50 3 50 20 0 11 -4 20 -10 20 -5 0 -10 8 -10 18 0 14 7 17 43
14 105 -9 143 126 55 191 -24 18 -32 19 -65 9 -24 -7 -41 -8 -47 -2 -15 15
-56 12 -63 -5z m157 -45 c39 -39 14 -110 -39 -110 -39 0 -55 22 -48 68 10 59
50 79 87 42z"/>
<path d="M1153 1365 c-46 -20 -67 -56 -60 -108 8 -55 43 -87 98 -87 46 0 79
14 79 35 0 21 -14 25 -50 15 -37 -10 -70 2 -70 25 0 12 15 15 65 15 l65 0 0
34 c0 26 -7 41 -31 60 -34 29 -50 31 -96 11z m77 -40 c18 -22 3 -35 -39 -35
-47 0 -56 8 -34 32 19 22 56 24 73 3z"/>
<path d="M1803 1365 c-69 -30 -80 -120 -21 -170 27 -23 39 -26 77 -22 58 7 91
41 91 97 0 75 -78 126 -147 95z m79 -42 c20 -18 24 -64 8 -94 -27 -50 -110 -2
-96 55 13 52 54 70 88 39z"/>
<path d="M1963 1365 c-3 -9 2 -24 11 -34 21 -23 22 -104 1 -121 -30 -25 -17
-40 35 -40 43 0 50 3 50 20 0 11 -5 20 -10 20 -7 0 -10 22 -8 58 3 56 3 57 33
57 l30 0 3 -77 3 -76 94 -1 c96 0 124 10 92 34 -12 9 -17 32 -19 91 l-3 79
-33 3 c-38 4 -56 -23 -29 -43 12 -9 17 -27 17 -62 0 -56 -14 -75 -48 -67 -18
5 -21 14 -24 72 -3 57 -6 67 -30 85 -22 17 -31 18 -59 8 -22 -8 -36 -8 -43 -1
-15 15 -56 12 -63 -5z"/>
<path d="M2513 1365 c-39 -17 -53 -42 -53 -95 0 -33 6 -48 29 -71 64 -64 171
-20 171 71 0 50 -22 85 -62 99 -39 14 -46 13 -85 -4z m74 -33 c23 -15 34 -62
20 -90 -10 -22 -19 -27 -47 -27 -28 0 -37 5 -47 27 -21 42 6 98 47 98 8 0 20
-4 27 -8z"/>
<path d="M2673 1364 c-4 -10 1 -22 10 -29 23 -16 23 -102 1 -126 -23 -26 -9
-39 41 -39 46 0 65 19 39 40 -21 18 -19 109 3 117 9 4 19 1 21 -5 5 -17 39
-15 46 3 3 8 12 12 21 9 11 -5 15 -21 15 -65 0 -33 -4 -59 -10 -59 -5 0 -10
-9 -10 -20 0 -17 7 -20 44 -20 51 0 65 13 42 38 -10 12 -16 42 -18 92 -3 73
-4 75 -29 78 -15 2 -34 -4 -43 -13 -9 -9 -16 -12 -16 -6 0 16 -38 23 -61 11
-15 -9 -24 -9 -32 -1 -17 17 -57 13 -64 -5z"/>
<path d="M3623 1374 c-18 -8 -16 -33 2 -40 21 -9 21 -119 0 -128 -8 -3 -12
-12 -9 -20 4 -12 27 -15 105 -15 55 0 101 5 105 10 3 6 -1 18 -10 28 -22 24
-22 107 0 115 46 18 54 9 54 -58 0 -88 4 -96 51 -96 44 0 51 15 19 43 -16 13
-20 29 -20 77 0 52 -3 62 -25 76 -20 13 -30 14 -60 4 -28 -9 -39 -9 -50 0 -19
16 -65 4 -65 -16 0 -8 7 -17 15 -20 22 -9 21 -119 -1 -128 -31 -12 -43 13 -46
92 -3 74 -4 77 -28 79 -14 1 -31 -1 -37 -3z"/>
<path d="M4883 1373 c-12 -2 -34 -18 -48 -34 -58 -69 -13 -169 75 -169 47 0
80 14 80 35 0 21 -14 25 -48 13 -25 -10 -34 -9 -56 5 -14 10 -26 22 -26 27 0
5 30 10 68 12 64 3 67 4 70 29 6 51 -55 94 -115 82z m66 -52 c14 -24 5 -31
-39 -31 -46 0 -55 8 -33 32 21 23 60 23 72 -1z"/>
<path d="M5133 1364 c-4 -10 0 -22 10 -29 14 -10 17 -29 17 -93 0 -75 -10
-107 -25 -82 -10 16 -35 12 -42 -6 -8 -22 22 -44 59 -44 48 0 59 32 56 156
l-3 109 -33 3 c-23 2 -34 -2 -39 -14z"/>
<path d="M5270 1373 c-26 -10 -50 -35 -50 -53 0 -22 22 -41 74 -61 54 -22 61
-49 13 -49 -27 0 -36 5 -40 21 -6 24 -25 22 -41 -5 -27 -43 90 -77 142 -40 45
31 23 78 -51 109 -42 18 -50 45 -12 45 14 0 29 -8 35 -20 11 -21 35 -27 45
-10 24 39 -57 84 -115 63z"/>
<path d="M5025 1224 c-18 -19 -16 -33 8 -48 18 -11 47 0 54 21 4 12 -23 43
-37 43 -5 0 -16 -7 -25 -16z"/>
</g>
</svg>
